<svg xmlns="http://www.w3.org/2000/svg" xmlns:xlink="http://www.w3.org/1999/xlink" width="500" zoomAndPan="magnify" viewBox="0 0 375 374.999991" height="500" preserveAspectRatio="xMidYMid meet" version="1.0"><defs><g/><clipPath id="22c940003a"><path d="M 132 58 L 245 58 L 245 318.75 L 132 318.75 Z M 132 58 " clip-rule="nonzero"/></clipPath></defs><path fill="#000000" d="M 95.070312 281.777344 C 89.523438 281.777344 85.828125 279.929688 82.128906 276.230469 L 8.1875 202.289062 C 0.792969 194.894531 0.792969 183.804688 8.1875 176.410156 L 82.128906 102.464844 C 89.523438 95.070312 100.617188 95.070312 108.011719 102.464844 C 115.40625 109.859375 115.40625 120.949219 108.011719 128.34375 L 47.007812 189.347656 L 108.011719 250.351562 C 115.40625 257.746094 115.40625 268.839844 108.011719 276.230469 C 104.3125 279.929688 100.617188 281.777344 95.070312 281.777344 Z M 95.070312 281.777344 " fill-opacity="1" fill-rule="nonzero"/><path fill="#000000" d="M 279.929688 281.777344 C 274.382812 281.777344 270.6875 279.929688 266.988281 276.230469 C 259.59375 268.839844 259.59375 257.746094 266.988281 250.351562 L 327.992188 189.347656 L 266.988281 128.34375 C 259.59375 120.949219 259.59375 109.859375 266.988281 102.464844 C 274.382812 95.070312 285.476562 95.070312 292.871094 102.464844 L 366.8125 176.410156 C 374.207031 183.804688 374.207031 194.894531 366.8125 202.289062 L 292.871094 276.230469 C 289.171875 279.929688 285.476562 281.777344 279.929688 281.777344 Z M 279.929688 281.777344 " fill-opacity="1" fill-rule="nonzero"/><g clip-path="url(#22c940003a)"><path fill="#000000" d="M 150.527344 318.75 C 148.679688 318.75 146.832031 318.75 144.980469 316.902344 C 135.738281 313.203125 130.195312 303.960938 133.890625 292.871094 L 207.835938 71.039062 C 211.53125 61.796875 220.773438 56.25 231.867188 59.945312 C 241.109375 63.644531 246.65625 72.886719 242.957031 83.980469 L 169.015625 305.808594 C 165.316406 313.203125 157.921875 318.75 150.527344 318.75 Z M 150.527344 318.75 " fill-opacity="1" fill-rule="nonzero"/></g><g fill="#525151" fill-opacity="1"><g transform="translate(60.868388, 200.358928)"><g><path d="M 12.808594 0.402344 C 18.09375 0.402344 22.382812 -2.796875 23.6875 -7.648438 L 20.796875 -7.648438 C 19.679688 -4.382812 16.601562 -2.332031 12.902344 -2.332031 C 8.050781 -2.332031 4.601562 -5.84375 4.601562 -10.878906 C 4.601562 -15.917969 8.050781 -19.429688 12.902344 -19.429688 C 16.507812 -19.429688 19.460938 -17.503906 20.578125 -14.363281 L 23.503906 -14.363281 C 22.070312 -19.148438 17.9375 -22.164062 12.808594 -22.164062 C 6.402344 -22.164062 1.804688 -17.441406 1.804688 -10.878906 C 1.804688 -4.320312 6.402344 0.402344 12.808594 0.402344 Z M 12.808594 0.402344 "/></g></g></g><g fill="#525151" fill-opacity="1"><g transform="translate(88.590864, 200.358928)"><g><path d="M 13.058594 0.402344 C 19.679688 0.402344 24.339844 -4.257812 24.339844 -10.878906 C 24.339844 -17.503906 19.679688 -22.164062 13.058594 -22.164062 C 6.433594 -22.164062 1.804688 -17.503906 1.804688 -10.878906 C 1.804688 -4.257812 6.433594 0.402344 13.058594 0.402344 Z M 4.601562 -10.878906 C 4.601562 -15.949219 8.050781 -19.429688 13.058594 -19.429688 C 18.0625 -19.429688 21.511719 -15.949219 21.511719 -10.878906 C 21.511719 -5.8125 18.0625 -2.332031 13.058594 -2.332031 C 8.050781 -2.332031 4.601562 -5.8125 4.601562 -10.878906 Z M 4.601562 -10.878906 "/></g></g></g><g fill="#525151" fill-opacity="1"><g transform="translate(117.059208, 200.358928)"><g><path d="M 3.171875 0 L 10.695312 0 C 17.378906 0 21.855469 -4.445312 21.855469 -10.878906 C 21.855469 -17.316406 17.378906 -21.761719 10.695312 -21.761719 L 3.171875 -21.761719 Z M 5.90625 -2.613281 L 5.90625 -19.148438 L 10.570312 -19.148438 C 15.636719 -19.148438 19.054688 -15.824219 19.054688 -10.878906 C 19.054688 -5.9375 15.667969 -2.613281 10.695312 -2.613281 Z M 5.90625 -2.613281 "/></g></g></g><g fill="#525151" fill-opacity="1"><g transform="translate(143.072393, 200.358928)"><g><path d="M 3.171875 0 L 16.726562 0 L 16.726562 -2.550781 L 5.90625 -2.550781 L 5.90625 -9.824219 L 15.605469 -9.824219 L 15.605469 -12.339844 L 5.90625 -12.339844 L 5.90625 -19.210938 L 16.382812 -19.210938 L 16.382812 -21.761719 L 3.171875 -21.761719 Z M 3.171875 0 "/></g></g></g><g fill="#525151" fill-opacity="1"><g transform="translate(225.225913, 202.608927)"><g><path d="M 13.027344 0.601562 C 20.003906 0.601562 24.132812 -2.6875 24.132812 -8.21875 C 24.132812 -12.867188 21.125 -15.59375 14.3125 -17.117188 C 10.703125 -17.917969 9.378906 -18.800781 9.378906 -20.246094 C 9.378906 -21.605469 10.582031 -22.449219 12.46875 -22.449219 C 14.710938 -22.449219 15.996094 -21.285156 15.996094 -19.160156 L 23.613281 -19.160156 C 23.613281 -24.933594 19.203125 -28.664062 12.308594 -28.664062 C 5.691406 -28.664062 1.601562 -25.375 1.601562 -20.082031 C 1.601562 -15.351562 4.691406 -12.425781 11.023438 -11.222656 C 14.429688 -10.542969 16.074219 -9.5 16.074219 -7.898438 C 16.074219 -6.496094 14.871094 -5.691406 12.90625 -5.691406 C 10.582031 -5.691406 9.21875 -6.933594 9.21875 -9.101562 L 1.402344 -9.101562 C 1.402344 -3.046875 5.734375 0.601562 13.027344 0.601562 Z M 13.027344 0.601562 "/></g></g></g><g fill="#525151" fill-opacity="1"><g transform="translate(250.83582, 202.608927)"><g><path d="M 10.421875 0 L 18.480469 0 L 18.480469 -9.78125 L 28.703125 -28.0625 L 19.523438 -28.0625 L 14.429688 -18 L 12.265625 -22.25 L 9.300781 -28.0625 L 0.199219 -28.0625 L 10.421875 -9.742188 Z M 10.421875 0 "/></g></g></g><g fill="#525151" fill-opacity="1"><g transform="translate(279.732127, 202.608927)"><g><path d="M 13.027344 0.601562 C 20.003906 0.601562 24.132812 -2.6875 24.132812 -8.21875 C 24.132812 -12.867188 21.125 -15.59375 14.3125 -17.117188 C 10.703125 -17.917969 9.378906 -18.800781 9.378906 -20.246094 C 9.378906 -21.605469 10.582031 -22.449219 12.46875 -22.449219 C 14.710938 -22.449219 15.996094 -21.285156 15.996094 -19.160156 L 23.613281 -19.160156 C 23.613281 -24.933594 19.203125 -28.664062 12.308594 -28.664062 C 5.691406 -28.664062 1.601562 -25.375 1.601562 -20.082031 C 1.601562 -15.351562 4.691406 -12.425781 11.023438 -11.222656 C 14.429688 -10.542969 16.074219 -9.5 16.074219 -7.898438 C 16.074219 -6.496094 14.871094 -5.691406 12.90625 -5.691406 C 10.582031 -5.691406 9.21875 -6.933594 9.21875 -9.101562 L 1.402344 -9.101562 C 1.402344 -3.046875 5.734375 0.601562 13.027344 0.601562 Z M 13.027344 0.601562 "/></g></g></g></svg>