<svg xmlns="http://www.w3.org/2000/svg" xmlns:xlink="http://www.w3.org/1999/xlink" width="80" zoomAndPan="magnify" viewBox="0 0 60 30.000001" height="40" preserveAspectRatio="xMidYMid meet" version="1.0"><defs><g/><clipPath id="c02072c6b1"><path d="M 0.972656 6.53125 L 59.027344 6.53125 L 59.027344 22.5 L 0.972656 22.5 Z M 0.972656 6.53125 " clip-rule="nonzero"/></clipPath><clipPath id="b8c949b09f"><path d="M 2.535156 8.03125 L 29.964844 8.03125 L 29.964844 21 L 2.535156 21 Z M 2.535156 8.03125 " clip-rule="nonzero"/></clipPath><clipPath id="ee247a0a9e"><path d="M 2.539062 8.03125 L 30.109375 8.03125 L 30.109375 21.097656 L 2.539062 21.097656 Z M 2.539062 8.03125 " clip-rule="nonzero"/></clipPath><clipPath id="8e8f0e66a8"><path d="M 36.203125 10 L 42 10 L 42 19 L 36.203125 19 Z M 36.203125 10 " clip-rule="nonzero"/></clipPath><clipPath id="521426a27b"><path d="M 47 10 L 52.894531 10 L 52.894531 19 L 47 19 Z M 47 10 " clip-rule="nonzero"/></clipPath><clipPath id="774766abe9"><path d="M 42 8.710938 L 48 8.710938 L 48 20.324219 L 42 20.324219 Z M 42 8.710938 " clip-rule="nonzero"/></clipPath></defs><g clip-path="url(#c02072c6b1)"><path stroke-linecap="butt" transform="matrix(0.7268, 0, 0, 0.725806, 0.971051, 6.530615)" fill="none" stroke-linejoin="miter" d="M 0.00220875 0.000875399 L 79.879301 0.000875399 L 79.879301 22.002264 L 0.00220875 22.002264 L 0.00220875 0.000875399 " stroke="#ffffff" stroke-width="1" stroke-opacity="1" stroke-miterlimit="4"/></g><g clip-path="url(#b8c949b09f)"><path fill="#525151" d="M 2.535156 8.03125 L 30.117188 8.03125 L 30.117188 21.132812 L 2.535156 21.132812 Z M 2.535156 8.03125 " fill-opacity="1" fill-rule="nonzero"/></g><g clip-path="url(#ee247a0a9e)"><path stroke-linecap="butt" transform="matrix(0.730009, 0, 0, 0.731521, 2.538421, 8.031421)" fill="none" stroke-linejoin="miter" d="M 0.00087866 -0.000233359 L 37.767977 -0.000233359 L 37.767977 17.861726 L 0.00087866 17.861726 L 0.00087866 -0.000233359 " stroke="#ffffff" stroke-width="1" stroke-opacity="1" stroke-miterlimit="4"/></g><g clip-path="url(#8e8f0e66a8)"><path fill="#000000" d="M 40.433594 18.6875 C 40.183594 18.6875 40.019531 18.605469 39.855469 18.441406 L 36.5625 15.171875 C 36.234375 14.84375 36.234375 14.351562 36.5625 14.027344 L 39.855469 10.753906 C 40.183594 10.425781 40.679688 10.425781 41.007812 10.753906 C 41.339844 11.082031 41.339844 11.570312 41.007812 11.898438 L 38.292969 14.597656 L 41.007812 17.296875 C 41.339844 17.625 41.339844 18.113281 41.007812 18.441406 C 40.84375 18.605469 40.679688 18.6875 40.433594 18.6875 Z M 40.433594 18.6875 " fill-opacity="1" fill-rule="nonzero"/></g><g clip-path="url(#521426a27b)"><path fill="#000000" d="M 48.667969 18.6875 C 48.417969 18.6875 48.253906 18.605469 48.089844 18.441406 C 47.761719 18.113281 47.761719 17.625 48.089844 17.296875 L 50.808594 14.597656 L 48.089844 11.898438 C 47.761719 11.570312 47.761719 11.082031 48.089844 10.753906 C 48.417969 10.425781 48.914062 10.425781 49.242188 10.753906 L 52.535156 14.027344 C 52.867188 14.351562 52.867188 14.84375 52.535156 15.171875 L 49.242188 18.441406 C 49.078125 18.605469 48.914062 18.6875 48.667969 18.6875 Z M 48.667969 18.6875 " fill-opacity="1" fill-rule="nonzero"/></g><g clip-path="url(#774766abe9)"><path fill="#000000" d="M 42.902344 20.324219 C 42.820312 20.324219 42.738281 20.324219 42.65625 20.242188 C 42.242188 20.078125 41.996094 19.667969 42.160156 19.175781 L 45.457031 9.363281 C 45.621094 8.953125 46.03125 8.710938 46.527344 8.875 C 46.9375 9.035156 47.183594 9.445312 47.019531 9.9375 L 43.726562 19.75 C 43.5625 20.078125 43.230469 20.324219 42.902344 20.324219 Z M 42.902344 20.324219 " fill-opacity="1" fill-rule="nonzero"/></g><g fill="#ffffff" fill-opacity="1"><g transform="translate(6.144296, 16.536759)"><g><path d="M 2.5625 0.0820312 C 3.621094 0.0820312 4.480469 -0.558594 4.742188 -1.53125 L 4.164062 -1.53125 C 3.941406 -0.878906 3.324219 -0.46875 2.582031 -0.46875 C 1.613281 -0.46875 0.921875 -1.171875 0.921875 -2.179688 C 0.921875 -3.1875 1.613281 -3.890625 2.582031 -3.890625 C 3.304688 -3.890625 3.894531 -3.503906 4.121094 -2.875 L 4.707031 -2.875 C 4.417969 -3.835938 3.589844 -4.4375 2.5625 -4.4375 C 1.28125 -4.4375 0.359375 -3.492188 0.359375 -2.179688 C 0.359375 -0.863281 1.28125 0.0820312 2.5625 0.0820312 Z M 2.5625 0.0820312 "/></g></g></g><g fill="#ffffff" fill-opacity="1"><g transform="translate(11.694657, 16.536759)"><g><path d="M 2.613281 0.0820312 C 3.941406 0.0820312 4.875 -0.851562 4.875 -2.179688 C 4.875 -3.503906 3.941406 -4.4375 2.613281 -4.4375 C 1.289062 -4.4375 0.359375 -3.503906 0.359375 -2.179688 C 0.359375 -0.851562 1.289062 0.0820312 2.613281 0.0820312 Z M 0.921875 -2.179688 C 0.921875 -3.191406 1.613281 -3.890625 2.613281 -3.890625 C 3.617188 -3.890625 4.308594 -3.191406 4.308594 -2.179688 C 4.308594 -1.164062 3.617188 -0.46875 2.613281 -0.46875 C 1.613281 -0.46875 0.921875 -1.164062 0.921875 -2.179688 Z M 0.921875 -2.179688 "/></g></g></g><g fill="#ffffff" fill-opacity="1"><g transform="translate(17.394349, 16.536759)"><g><path d="M 0.636719 0 L 2.140625 0 C 3.480469 0 4.375 -0.890625 4.375 -2.179688 C 4.375 -3.46875 3.480469 -4.355469 2.140625 -4.355469 L 0.636719 -4.355469 Z M 1.183594 -0.523438 L 1.183594 -3.835938 L 2.117188 -3.835938 C 3.128906 -3.835938 3.816406 -3.167969 3.816406 -2.179688 C 3.816406 -1.1875 3.136719 -0.523438 2.140625 -0.523438 Z M 1.183594 -0.523438 "/></g></g></g><g fill="#ffffff" fill-opacity="1"><g transform="translate(22.602492, 16.536759)"><g><path d="M 0.636719 0 L 3.347656 0 L 3.347656 -0.511719 L 1.183594 -0.511719 L 1.183594 -1.96875 L 3.125 -1.96875 L 3.125 -2.472656 L 1.183594 -2.472656 L 1.183594 -3.847656 L 3.28125 -3.847656 L 3.28125 -4.355469 L 0.636719 -4.355469 Z M 0.636719 0 "/></g></g></g><g fill="#ffffff" fill-opacity="1"><g transform="translate(38.275847, 16.570277)"><g><path d="M 2.023438 0.09375 C 3.105469 0.09375 3.746094 -0.417969 3.746094 -1.277344 C 3.746094 -1.996094 3.28125 -2.421875 2.222656 -2.65625 C 1.660156 -2.78125 1.457031 -2.917969 1.457031 -3.144531 C 1.457031 -3.355469 1.644531 -3.484375 1.9375 -3.484375 C 2.285156 -3.484375 2.484375 -3.304688 2.484375 -2.976562 L 3.664062 -2.976562 C 3.664062 -3.871094 2.980469 -4.449219 1.910156 -4.449219 C 0.882812 -4.449219 0.25 -3.941406 0.25 -3.117188 C 0.25 -2.382812 0.726562 -1.929688 1.710938 -1.742188 C 2.242188 -1.636719 2.496094 -1.476562 2.496094 -1.226562 C 2.496094 -1.007812 2.308594 -0.882812 2.003906 -0.882812 C 1.644531 -0.882812 1.429688 -1.078125 1.429688 -1.414062 L 0.21875 -1.414062 C 0.21875 -0.472656 0.890625 0.09375 2.023438 0.09375 Z M 2.023438 0.09375 "/></g></g></g><g fill="#ffffff" fill-opacity="1"><g transform="translate(42.252792, 16.570277)"><g><path d="M 1.617188 0 L 2.871094 0 L 2.871094 -1.519531 L 4.457031 -4.355469 L 3.03125 -4.355469 L 2.242188 -2.792969 L 1.90625 -3.453125 L 1.445312 -4.355469 L 0.03125 -4.355469 L 1.617188 -1.511719 Z M 1.617188 0 "/></g></g></g><g fill="#ffffff" fill-opacity="1"><g transform="translate(46.740079, 16.570277)"><g><path d="M 2.023438 0.09375 C 3.105469 0.09375 3.746094 -0.417969 3.746094 -1.277344 C 3.746094 -1.996094 3.28125 -2.421875 2.222656 -2.65625 C 1.660156 -2.78125 1.457031 -2.917969 1.457031 -3.144531 C 1.457031 -3.355469 1.644531 -3.484375 1.9375 -3.484375 C 2.285156 -3.484375 2.484375 -3.304688 2.484375 -2.976562 L 3.664062 -2.976562 C 3.664062 -3.871094 2.980469 -4.449219 1.910156 -4.449219 C 0.882812 -4.449219 0.25 -3.941406 0.25 -3.117188 C 0.25 -2.382812 0.726562 -1.929688 1.710938 -1.742188 C 2.242188 -1.636719 2.496094 -1.476562 2.496094 -1.226562 C 2.496094 -1.007812 2.308594 -0.882812 2.003906 -0.882812 C 1.644531 -0.882812 1.429688 -1.078125 1.429688 -1.414062 L 0.21875 -1.414062 C 0.21875 -0.472656 0.890625 0.09375 2.023438 0.09375 Z M 2.023438 0.09375 "/></g></g></g></svg>